<svg xmlns="http://www.w3.org/2000/svg" fill="#4F4F4F" height="20" viewBox="0 -960 960 960" width="20"><path d="M480.212-480Q510-480 531-501.212q21-21.213 21-51Q552-582 530.788-603q-21.213-21-51-21Q450-624 429-602.788q-21 21.213-21 51Q408-522 429.212-501q21.213 21 51 21ZM480-191q119-107 179.5-197T720-549q0-105-68.5-174T480-792q-103 0-171.5 69T240-549q0 71 60.5 161T480-191Zm0 95Q323.025-227.108 245.512-339.554 168-452 168-549q0-134 89-224.5T479.5-864q133.5 0 223 90.5T792-549q0 97-77 209T480-96Zm0-456Z"/></svg>
